<svg xmlns="http://www.w3.org/2000/svg" xmlns:xlink="http://www.w3.org/1999/xlink" width="500" zoomAndPan="magnify" viewBox="0 0 375 374.999991" height="500" preserveAspectRatio="xMidYMid meet" version="1.0"><defs><g/></defs><rect x="-37.5" width="450" fill="#ffffff" y="-37.499999" height="449.999989" fill-opacity="1"/><rect x="-37.5" width="450" fill="#ffffff" y="-37.499999" height="449.999989" fill-opacity="1"/><rect x="-37.5" width="450" fill="#514343" y="-37.499999" height="449.999989" fill-opacity="1"/><g fill="#0bb6c4" fill-opacity="1"><g transform="translate(26.690172, 197.89262)"><g><path d="M 86.984375 -9.5 C 87.359375 -9.289062 87.476562 -8.984375 87.34375 -8.578125 C 87.21875 -8.171875 86.988281 -7.742188 86.65625 -7.296875 C 86.320312 -6.859375 86.015625 -6.488281 85.734375 -6.1875 C 85.617188 -6.0625 85.539062 -5.957031 85.5 -5.875 C 83.101562 -2.882812 81 0.273438 79.1875 3.609375 C 77.382812 6.953125 75.679688 10.347656 74.078125 13.796875 C 73.410156 15.128906 72.757812 16.46875 72.125 17.8125 C 70.65625 20.75 69.226562 23.695312 67.84375 26.65625 C 65.457031 31.738281 62.953125 36.78125 60.328125 41.78125 C 59.410156 43.539062 58.382812 45.25 57.25 46.90625 C 56.332031 48.257812 55.007812 48.878906 53.28125 48.765625 C 51.832031 48.722656 50.992188 48.015625 50.765625 46.640625 C 50.503906 45.460938 50.390625 44.253906 50.421875 43.015625 C 50.441406 38.410156 50.769531 33.816406 51.40625 29.234375 C 51.832031 26.066406 52.234375 22.914062 52.609375 19.78125 C 52.992188 16.375 53.421875 12.972656 53.890625 9.578125 C 54.929688 1.835938 56.046875 -5.890625 57.234375 -13.609375 C 58.597656 -22.472656 60 -31.304688 61.4375 -40.109375 C 63.914062 -55.035156 66.203125 -70.023438 68.296875 -85.078125 C 68.421875 -86.003906 68.476562 -86.773438 68.46875 -87.390625 C 68.457031 -88.015625 68.332031 -88.253906 68.09375 -88.109375 C 67.863281 -87.960938 67.472656 -87.253906 66.921875 -85.984375 C 61.835938 -73.316406 57.085938 -60.535156 52.671875 -47.640625 C 52.492188 -47.160156 52.34375 -46.691406 52.21875 -46.234375 C 49.582031 -38.578125 46.914062 -30.945312 44.21875 -23.34375 C 43.21875 -20.382812 42.078125 -17.394531 40.796875 -14.375 C 39.515625 -11.351562 38.0625 -8.519531 36.4375 -5.875 C 35.957031 -5.113281 35.347656 -4.609375 34.609375 -4.359375 C 33.878906 -4.109375 33.0625 -4.054688 32.15625 -4.203125 C 31.21875 -4.328125 30.546875 -4.8125 30.140625 -5.65625 C 29.785156 -6.46875 29.585938 -7.328125 29.546875 -8.234375 C 29.492188 -9.316406 29.429688 -10.410156 29.359375 -11.515625 C 29.179688 -13.953125 29.054688 -16.375 28.984375 -18.78125 C 28.773438 -25.5 28.394531 -32.25 27.84375 -39.03125 C 27.289062 -45.820312 26.484375 -52.546875 25.421875 -59.203125 C 25.117188 -60.878906 24.5625 -60.859375 23.75 -59.140625 C 22.9375 -57.429688 21.960938 -54.53125 20.828125 -50.4375 C 19.703125 -46.34375 18.488281 -41.628906 17.1875 -36.296875 C 15.894531 -30.972656 14.628906 -25.546875 13.390625 -20.015625 C 12.160156 -14.492188 11.035156 -9.441406 10.015625 -4.859375 C 8.460938 2.253906 7.4375 6.773438 6.9375 8.703125 C 6.519531 10.109375 5.984375 11.4375 5.328125 12.6875 C 5.035156 13.238281 4.632812 13.597656 4.125 13.765625 C 3.625 13.929688 3.070312 13.96875 2.46875 13.875 C 1.269531 13.65625 0.566406 12.921875 0.359375 11.671875 C 0.285156 11.003906 0.265625 10.332031 0.296875 9.65625 C 0.265625 9.125 0.265625 8.59375 0.296875 8.0625 C 0.285156 5.988281 0.316406 3.882812 0.390625 1.75 C 0.847656 -14.519531 1.710938 -30.796875 2.984375 -47.078125 C 3.804688 -57.335938 4.601562 -67.640625 5.375 -77.984375 C 5.425781 -79.085938 5.476562 -80.207031 5.53125 -81.34375 C 5.550781 -82.394531 5.601562 -83.472656 5.6875 -84.578125 C 5.757812 -85.421875 6.097656 -85.988281 6.703125 -86.28125 C 7.304688 -86.570312 7.992188 -86.53125 8.765625 -86.15625 C 9.078125 -86.03125 9.28125 -85.847656 9.375 -85.609375 C 9.476562 -85.367188 9.539062 -85.101562 9.5625 -84.8125 C 9.769531 -81.957031 9.753906 -79.109375 9.515625 -76.265625 C 9.378906 -74.566406 9.238281 -72.867188 9.09375 -71.171875 C 8.75 -66.492188 8.367188 -61.832031 7.953125 -57.1875 C 7.441406 -51.175781 7.007812 -45.175781 6.65625 -39.1875 C 6.363281 -34.78125 6.0625 -30.347656 5.75 -25.890625 C 5.394531 -21.210938 5.128906 -16.523438 4.953125 -11.828125 C 4.796875 -8.609375 4.617188 -5.347656 4.421875 -2.046875 C 4.410156 -1.859375 4.414062 -1.5625 4.4375 -1.15625 C 4.46875 -0.757812 4.519531 -0.34375 4.59375 0.09375 C 4.664062 0.539062 4.742188 0.894531 4.828125 1.15625 C 4.910156 1.414062 5.019531 1.484375 5.15625 1.359375 C 5.289062 1.242188 5.4375 0.828125 5.59375 0.109375 C 6.019531 -1.960938 6.507812 -4.296875 7.0625 -6.890625 C 8.289062 -13.003906 9.734375 -19.742188 11.390625 -27.109375 C 13.046875 -34.484375 14.847656 -41.4375 16.796875 -47.96875 C 18.753906 -54.5 20.769531 -59.539062 22.84375 -63.09375 C 23.6875 -64.382812 24.691406 -64.976562 25.859375 -64.875 C 27.035156 -64.78125 27.953125 -64.019531 28.609375 -62.59375 C 29.453125 -60.3125 30.117188 -57.535156 30.609375 -54.265625 C 31.109375 -50.992188 31.488281 -47.59375 31.75 -44.0625 C 32.019531 -40.539062 32.234375 -37.242188 32.390625 -34.171875 C 32.460938 -32.492188 32.546875 -30.96875 32.640625 -29.59375 C 32.765625 -27.414062 32.878906 -25.414062 32.984375 -23.59375 C 33.222656 -19.289062 33.472656 -15.9375 33.734375 -13.53125 C 34.003906 -11.125 34.457031 -9.90625 35.09375 -9.875 C 35.738281 -9.84375 36.691406 -11.285156 37.953125 -14.203125 C 39.210938 -17.128906 40.96875 -21.785156 43.21875 -28.171875 C 45.238281 -34.078125 47.160156 -39.773438 48.984375 -45.265625 C 51.367188 -52.515625 53.832031 -59.71875 56.375 -66.875 C 58.925781 -74.03125 61.875 -81.472656 65.21875 -89.203125 C 66.1875 -91.441406 67.175781 -93.273438 68.1875 -94.703125 C 69.207031 -96.140625 70.171875 -96.875 71.078125 -96.90625 C 71.421875 -96.9375 71.757812 -96.875 72.09375 -96.71875 C 72.4375 -96.5625 72.726562 -96.15625 72.96875 -95.5 C 73.207031 -94.84375 73.304688 -93.757812 73.265625 -92.25 C 73.210938 -89.695312 73.039062 -87.15625 72.75 -84.625 C 72.457031 -82.101562 72.140625 -79.582031 71.796875 -77.0625 C 71.742188 -76.75 71.710938 -76.460938 71.703125 -76.203125 C 69.828125 -63.265625 67.800781 -50.351562 65.625 -37.46875 C 64.25 -29.0625 62.90625 -20.664062 61.59375 -12.28125 C 61.582031 -12.082031 61.554688 -11.863281 61.515625 -11.625 C 60.304688 -3.800781 59.15625 4.035156 58.0625 11.890625 C 57.132812 18.796875 56.253906 25.707031 55.421875 32.625 C 55.347656 33.226562 55.28125 33.859375 55.21875 34.515625 C 55.007812 36.265625 54.847656 38.03125 54.734375 39.8125 C 54.703125 40.46875 54.671875 41.09375 54.640625 41.6875 C 54.597656 41.882812 54.609375 42.050781 54.671875 42.1875 C 54.734375 42.320312 54.882812 42.394531 55.125 42.40625 C 55.195312 42.40625 55.28125 42.378906 55.375 42.328125 C 55.476562 42.285156 55.546875 42.203125 55.578125 42.078125 C 58.085938 37.484375 60.53125 32.894531 62.90625 28.3125 C 65.164062 23.90625 67.472656 19.503906 69.828125 15.109375 C 72.191406 10.710938 74.671875 6.359375 77.265625 2.046875 C 79.410156 -1.578125 81.367188 -4.46875 83.140625 -6.625 C 84.921875 -8.78125 86.203125 -9.738281 86.984375 -9.5 Z M 86.984375 -9.5 "/></g></g></g><g fill="#0bb6c4" fill-opacity="1"><g transform="translate(110.969098, 201.905535)"><g><path d="M 66.640625 -72.796875 C 67.085938 -72.703125 67.410156 -72.4375 67.609375 -72 C 67.722656 -71.769531 67.726562 -71.570312 67.625 -71.40625 C 67.519531 -71.238281 67.382812 -71.066406 67.21875 -70.890625 C 65.757812 -69.671875 64.28125 -68.4375 62.78125 -67.1875 C 61.320312 -65.914062 59.851562 -64.671875 58.375 -63.453125 C 54.582031 -60.210938 50.785156 -56.976562 46.984375 -53.75 C 39.546875 -47.457031 32.109375 -41.144531 24.671875 -34.8125 C 20.878906 -31.65625 17.285156 -28.253906 13.890625 -24.609375 C 12.679688 -23.335938 11.539062 -21.984375 10.46875 -20.546875 C 9.75 -19.597656 9.15625 -18.566406 8.6875 -17.453125 C 7.894531 -15.585938 8.269531 -13.988281 9.8125 -12.65625 C 10.84375 -11.84375 11.929688 -11.128906 13.078125 -10.515625 C 14.785156 -9.566406 16.535156 -8.738281 18.328125 -8.03125 C 20.117188 -7.332031 21.925781 -6.6875 23.75 -6.09375 C 29.882812 -3.96875 36.019531 -1.875 42.15625 0.1875 C 42.675781 0.375 43.195312 0.554688 43.71875 0.734375 C 43.820312 0.765625 43.953125 0.804688 44.109375 0.859375 C 44.515625 0.992188 44.90625 1.15625 45.28125 1.34375 C 45.65625 1.539062 45.988281 1.816406 46.28125 2.171875 C 46.457031 2.410156 46.5 2.664062 46.40625 2.9375 C 46.3125 3.21875 46.148438 3.40625 45.921875 3.5 C 45.117188 3.769531 44.363281 3.71875 43.65625 3.34375 C 42.6875 2.820312 41.675781 2.398438 40.625 2.078125 C 39.570312 1.753906 38.507812 1.457031 37.4375 1.1875 C 36.5 0.957031 35.5625 0.675781 34.625 0.34375 C 33.164062 -0.09375 31.703125 -0.519531 30.234375 -0.9375 C 26.304688 -2.113281 22.414062 -3.398438 18.5625 -4.796875 C 15.351562 -5.921875 12.226562 -7.265625 9.1875 -8.828125 C 8.332031 -9.273438 7.789062 -9.414062 7.5625 -9.25 C 7.332031 -9.09375 7.195312 -8.523438 7.15625 -7.546875 C 7.082031 -6.984375 7.035156 -6.441406 7.015625 -5.921875 C 7.046875 -5.679688 7.054688 -5.453125 7.046875 -5.234375 C 6.898438 -2.234375 6.757812 0.765625 6.625 3.765625 C 6.25 11.566406 5.851562 19.347656 5.4375 27.109375 C 5.351562 28.960938 5.1875 30.820312 4.9375 32.6875 C 4.863281 33.550781 4.78125 34.429688 4.6875 35.328125 C 4.675781 35.671875 4.609375 35.976562 4.484375 36.25 C 4.359375 36.53125 4.117188 36.742188 3.765625 36.890625 C 3.078125 37.148438 2.492188 37.132812 2.015625 36.84375 C 1.546875 36.550781 1.28125 36.066406 1.21875 35.390625 C 1.207031 34.796875 1.203125 34.21875 1.203125 33.65625 C 1.148438 30.832031 1.171875 27.992188 1.265625 25.140625 C 1.753906 14.753906 2.25 4.367188 2.75 -6.015625 C 2.925781 -9.835938 3.101562 -13.644531 3.28125 -17.4375 C 3.28125 -17.4375 3.300781 -17.429688 3.34375 -17.421875 C 3.53125 -21.234375 3.710938 -25.054688 3.890625 -28.890625 C 4.390625 -40.234375 4.929688 -51.582031 5.515625 -62.9375 C 5.640625 -65.488281 5.832031 -68.015625 6.09375 -70.515625 C 6.1875 -71.546875 6.757812 -72.085938 7.8125 -72.140625 C 9.039062 -72.234375 9.707031 -71.675781 9.8125 -70.46875 C 9.925781 -68.957031 9.945312 -67.425781 9.875 -65.875 C 9.53125 -58.644531 9.1875 -51.410156 8.84375 -44.171875 C 8.625 -38.859375 8.390625 -33.566406 8.140625 -28.296875 C 8.097656 -27.316406 8.097656 -26.332031 8.140625 -25.34375 C 8.140625 -25.289062 8.175781 -25.242188 8.25 -25.203125 C 8.332031 -25.171875 8.40625 -25.132812 8.46875 -25.09375 C 8.539062 -25.0625 8.601562 -25.054688 8.65625 -25.078125 C 8.769531 -25.078125 8.863281 -25.113281 8.9375 -25.1875 C 9.019531 -25.257812 9.101562 -25.332031 9.1875 -25.40625 C 11.851562 -28.28125 14.644531 -31.003906 17.5625 -33.578125 C 20.488281 -36.148438 23.4375 -38.695312 26.40625 -41.21875 C 26.601562 -41.363281 26.800781 -41.523438 27 -41.703125 C 35.863281 -49.210938 44.765625 -56.679688 53.703125 -64.109375 C 55.679688 -65.773438 57.644531 -67.4375 59.59375 -69.09375 C 60.882812 -70.132812 62.179688 -71.148438 63.484375 -72.140625 C 64.429688 -72.816406 65.484375 -73.035156 66.640625 -72.796875 Z M 66.640625 -72.796875 "/></g></g></g><g fill="#0bb6c4" fill-opacity="1"><g transform="translate(156.558906, 219.719136)"><g><path d="M 0.535156 0 L 2.242188 0 L 2.242188 -0.179688 C 1.582031 -0.382812 1.273438 -0.828125 1.273438 -2.382812 L 1.273438 -7.675781 L 4.476562 -2.421875 L 4.769531 -2.421875 L 7.828125 -7.789062 L 7.828125 -1.621094 C 7.828125 -0.703125 7.738281 -0.320312 7.320312 -0.179688 L 7.320312 0 L 9.691406 0 L 9.691406 -0.179688 C 9.269531 -0.320312 9.179688 -0.703125 9.179688 -1.621094 L 9.179688 -6.539062 C 9.179688 -8.097656 9.460938 -8.542969 10.046875 -8.746094 L 10.046875 -8.925781 L 8.238281 -8.925781 L 5.242188 -3.699219 L 2.089844 -8.925781 L 0.179688 -8.925781 L 0.179688 -8.746094 C 0.765625 -8.542969 1.046875 -8.097656 1.046875 -6.539062 L 1.046875 -1.621094 C 1.046875 -0.703125 0.957031 -0.320312 0.535156 -0.179688 Z M 0.535156 0 "/></g></g></g><g fill="#0bb6c4" fill-opacity="1"><g transform="translate(174.461583, 219.719136)"><g><path d="M -0.269531 0 L 1.210938 0 L 1.210938 -0.179688 C 0.777344 -0.28125 0.703125 -0.648438 1.046875 -1.503906 L 1.785156 -3.328125 L 5.1875 -3.328125 L 5.953125 -1.492188 C 6.3125 -0.648438 6.488281 -0.320312 6.070312 -0.179688 L 6.070312 0 L 8.390625 0 L 8.390625 -0.179688 C 8.097656 -0.320312 7.765625 -0.648438 7.40625 -1.492188 L 4.246094 -9.027344 L 2.996094 -8.464844 L 3.160156 -8.109375 C 3.277344 -7.878906 3.289062 -7.675781 3.1875 -7.421875 L 0.804688 -1.503906 C 0.460938 -0.648438 0.113281 -0.320312 -0.269531 -0.179688 Z M 1.863281 -3.53125 L 3.457031 -7.472656 L 5.101562 -3.53125 Z M 1.863281 -3.53125 "/></g></g></g><g fill="#0bb6c4" fill-opacity="1"><g transform="translate(189.916266, 219.719136)"><g><path d="M 5.496094 0.128906 C 6.554688 0.128906 8.121094 -0.394531 9.078125 -1.644531 L 9.078125 -3.992188 L 7.101562 -3.992188 L 7.101562 -3.8125 C 7.648438 -3.660156 7.765625 -3.300781 7.765625 -2.308594 L 7.765625 -1.148438 C 7.445312 -0.511719 6.71875 -0.179688 5.914062 -0.179688 C 3.46875 -0.179688 2 -2.933594 2.027344 -5.34375 C 2.054688 -7.648438 3.339844 -8.773438 5.011719 -8.773438 C 6.285156 -8.773438 7.625 -7.980469 8.148438 -6.667969 L 8.300781 -6.707031 L 8.25 -8.390625 C 7.585938 -8.835938 6.273438 -9.015625 5.484375 -9.015625 C 2.613281 -9.015625 0.6875 -6.949219 0.6875 -4.5 C 0.6875 -1.707031 2.5625 0.128906 5.496094 0.128906 Z M 5.496094 0.128906 "/></g></g></g><g fill="#0bb6c4" fill-opacity="1"><g transform="translate(206.786192, 219.719136)"><g><path d="M 7.320312 0.101562 L 7.484375 0.101562 L 7.484375 -7.304688 C 7.484375 -8.222656 7.574219 -8.605469 7.996094 -8.746094 L 7.996094 -8.925781 L 6.273438 -8.925781 L 6.273438 -8.746094 C 6.9375 -8.542969 7.242188 -8.097656 7.242188 -6.539062 L 7.242188 -2.21875 L 1.886719 -8.925781 L 0.445312 -8.925781 L 0.445312 -8.746094 C 0.996094 -8.605469 1.109375 -8.222656 1.109375 -7.304688 L 1.109375 -1.621094 C 1.109375 -0.703125 1.019531 -0.320312 0.597656 -0.179688 L 0.597656 0 L 2.308594 0 L 2.308594 -0.179688 C 1.644531 -0.382812 1.339844 -0.828125 1.339844 -2.382812 L 1.339844 -7.445312 Z M 7.320312 0.101562 "/></g></g></g><g fill="#0bb6c4" fill-opacity="1"><g transform="translate(222.483125, 219.719136)"><g><path d="M 5.253906 0.128906 C 7.394531 0.128906 9.804688 -1.3125 9.804688 -4.425781 C 9.804688 -7.546875 7.40625 -9.027344 5.253906 -9.027344 C 2.550781 -9.027344 0.6875 -7.023438 0.6875 -4.5 C 0.6875 -1.300781 3.085938 0.128906 5.253906 0.128906 Z M 2.015625 -5.277344 C 1.875 -7.34375 2.855469 -8.695312 4.589844 -8.695312 C 6.796875 -8.695312 8.324219 -6.132812 8.515625 -3.417969 C 8.632812 -1.734375 7.929688 -0.269531 5.980469 -0.269531 C 3.8125 -0.269531 2.191406 -2.726562 2.015625 -5.277344 Z M 2.015625 -5.277344 "/></g></g></g><g fill="#0bb6c4" fill-opacity="1"><g transform="translate(240.194561, 219.719136)"><g/></g></g><g fill="#0bb6c4" fill-opacity="1"><g transform="translate(250.001014, 219.719136)"><g><path d="M 0.597656 0 L 2.972656 0 L 2.972656 -0.179688 C 2.550781 -0.320312 2.460938 -0.703125 2.460938 -1.621094 L 2.460938 -4.015625 L 3.1875 -4.769531 L 3.417969 -4.769531 C 4.566406 -4.769531 4.691406 -4.066406 5.496094 -2.089844 C 6.261719 -0.214844 6.402344 0.0898438 7.457031 0.0898438 C 7.726562 0.0898438 8.03125 0.078125 8.324219 0 L 8.324219 -0.191406 C 8.25 -0.179688 8.199219 -0.179688 8.132812 -0.179688 C 7.726562 -0.179688 7.546875 -0.484375 6.796875 -2.421875 C 6.003906 -4.449219 5.636719 -5.101562 3.722656 -4.996094 L 3.402344 -4.984375 L 6.121094 -7.765625 C 6.769531 -8.429688 7.355469 -8.605469 7.867188 -8.746094 L 7.867188 -8.925781 L 5.863281 -8.925781 L 5.863281 -8.796875 C 6.414062 -8.707031 6.375 -8.3125 5.558594 -7.484375 L 2.460938 -4.308594 L 2.460938 -7.304688 C 2.460938 -8.222656 2.550781 -8.605469 2.972656 -8.746094 L 2.972656 -8.925781 L 0.597656 -8.925781 L 0.597656 -8.746094 C 1.019531 -8.605469 1.109375 -8.222656 1.109375 -7.304688 L 1.109375 -1.621094 C 1.109375 -0.703125 1.019531 -0.320312 0.597656 -0.179688 Z M 0.597656 0 "/></g></g></g><g fill="#0bb6c4" fill-opacity="1"><g transform="translate(265.481202, 219.719136)"><g><path d="M 0.597656 0 L 7.050781 0 L 7.140625 -1.863281 L 6.972656 -1.886719 C 6.488281 -0.585938 5.609375 -0.203125 4.320312 -0.203125 L 3.097656 -0.203125 C 2.691406 -0.203125 2.460938 -0.433594 2.460938 -0.839844 L 2.460938 -4.691406 L 3.683594 -4.691406 C 5.242188 -4.691406 5.6875 -4.386719 5.890625 -3.722656 L 6.070312 -3.722656 L 6.070312 -5.863281 L 5.890625 -5.863281 C 5.6875 -5.203125 5.242188 -4.894531 3.683594 -4.894531 L 2.460938 -4.894531 L 2.460938 -8.722656 L 3.953125 -8.722656 C 5.378906 -8.722656 6.183594 -8.339844 6.695312 -7.089844 L 6.859375 -7.128906 L 6.71875 -8.925781 L 0.597656 -8.925781 L 0.597656 -8.746094 C 1.019531 -8.605469 1.109375 -8.222656 1.109375 -7.304688 L 1.109375 -1.621094 C 1.109375 -0.703125 1.019531 -0.320312 0.597656 -0.179688 Z M 0.597656 0 "/></g></g></g><g fill="#0bb6c4" fill-opacity="1"><g transform="translate(280.32389, 219.719136)"><g><path d="M 0.597656 0 L 6.667969 0 L 6.769531 -1.605469 L 6.605469 -1.632812 C 6.09375 -0.535156 5.429688 -0.230469 4.144531 -0.230469 L 3.097656 -0.230469 C 2.691406 -0.230469 2.460938 -0.460938 2.460938 -0.867188 L 2.460938 -7.304688 C 2.460938 -8.222656 2.550781 -8.605469 2.972656 -8.746094 L 2.972656 -8.925781 L 0.597656 -8.925781 L 0.597656 -8.746094 C 1.019531 -8.605469 1.109375 -8.222656 1.109375 -7.304688 L 1.109375 -1.621094 C 1.109375 -0.703125 1.019531 -0.320312 0.597656 -0.179688 Z M 0.597656 0 "/></g></g></g><g fill="#0bb6c4" fill-opacity="1"><g transform="translate(294.580081, 219.719136)"><g><path d="M 0.597656 0 L 6.667969 0 L 6.769531 -1.605469 L 6.605469 -1.632812 C 6.09375 -0.535156 5.429688 -0.230469 4.144531 -0.230469 L 3.097656 -0.230469 C 2.691406 -0.230469 2.460938 -0.460938 2.460938 -0.867188 L 2.460938 -7.304688 C 2.460938 -8.222656 2.550781 -8.605469 2.972656 -8.746094 L 2.972656 -8.925781 L 0.597656 -8.925781 L 0.597656 -8.746094 C 1.019531 -8.605469 1.109375 -8.222656 1.109375 -7.304688 L 1.109375 -1.621094 C 1.109375 -0.703125 1.019531 -0.320312 0.597656 -0.179688 Z M 0.597656 0 "/></g></g></g><g fill="#0bb6c4" fill-opacity="1"><g transform="translate(308.836271, 219.719136)"><g><path d="M 2.347656 0 L 4.730469 0 L 4.730469 -0.179688 C 4.308594 -0.320312 4.21875 -0.703125 4.21875 -1.621094 L 4.21875 -4.078125 L 6.144531 -7.507812 C 6.589844 -8.3125 7.011719 -8.605469 7.394531 -8.746094 L 7.394531 -8.925781 L 5.75 -8.925781 L 5.75 -8.746094 C 6.273438 -8.644531 6.335938 -8.3125 5.890625 -7.507812 L 4.167969 -4.476562 L 2.484375 -7.507812 C 2.039062 -8.3125 1.785156 -8.605469 2.207031 -8.746094 L 2.207031 -8.925781 L -0.179688 -8.925781 L -0.179688 -8.746094 C 0.113281 -8.605469 0.523438 -8.3125 0.957031 -7.507812 L 2.84375 -4.09375 L 2.855469 -1.621094 C 2.855469 -0.703125 2.765625 -0.320312 2.347656 -0.179688 Z M 2.347656 0 "/></g></g></g><g fill="#0bb6c4" fill-opacity="1"><g transform="translate(156.558906, 236.505186)"><g><path d="M 2.046875 0.15625 C 1.335938 0.15625 0.785156 0.0625 0.390625 -0.125 C 0.390625 -0.59375 0.457031 -1.054688 0.59375 -1.515625 C 0.601562 -1.515625 0.617188 -1.515625 0.640625 -1.515625 C 0.660156 -1.515625 0.679688 -1.515625 0.703125 -1.515625 C 0.796875 -1.515625 0.878906 -1.5 0.953125 -1.46875 L 1.078125 -0.40625 C 1.410156 -0.332031 1.695312 -0.296875 1.9375 -0.296875 C 2.125 -0.296875 2.3125 -0.316406 2.5 -0.359375 C 2.695312 -0.398438 2.867188 -0.484375 3.015625 -0.609375 C 3.160156 -0.742188 3.234375 -0.925781 3.234375 -1.15625 C 3.234375 -1.363281 3.203125 -1.53125 3.140625 -1.65625 C 3.078125 -1.789062 2.9375 -1.929688 2.71875 -2.078125 C 2.5 -2.234375 2.15625 -2.410156 1.6875 -2.609375 C 1.21875 -2.816406 0.882812 -3.039062 0.6875 -3.28125 C 0.488281 -3.53125 0.394531 -3.859375 0.40625 -4.265625 C 0.414062 -4.734375 0.613281 -5.085938 1 -5.328125 C 1.382812 -5.566406 1.867188 -5.6875 2.453125 -5.6875 C 2.953125 -5.6875 3.40625 -5.609375 3.8125 -5.453125 C 3.820312 -5.046875 3.738281 -4.597656 3.5625 -4.109375 C 3.539062 -4.109375 3.503906 -4.109375 3.453125 -4.109375 C 3.367188 -4.109375 3.289062 -4.125 3.21875 -4.15625 L 3.125 -5.203125 C 2.882812 -5.273438 2.644531 -5.3125 2.40625 -5.3125 C 2.0625 -5.3125 1.769531 -5.234375 1.53125 -5.078125 C 1.289062 -4.929688 1.171875 -4.703125 1.171875 -4.390625 C 1.160156 -4.148438 1.226562 -3.953125 1.375 -3.796875 C 1.519531 -3.648438 1.832031 -3.46875 2.3125 -3.25 C 2.65625 -3.09375 2.921875 -2.960938 3.109375 -2.859375 C 3.296875 -2.765625 3.46875 -2.644531 3.625 -2.5 C 3.78125 -2.363281 3.894531 -2.203125 3.96875 -2.015625 C 4.039062 -1.835938 4.078125 -1.628906 4.078125 -1.390625 C 4.066406 -0.890625 3.859375 -0.503906 3.453125 -0.234375 C 3.054688 0.0234375 2.585938 0.15625 2.046875 0.15625 Z M 2.046875 0.15625 "/></g></g></g><g fill="#0bb6c4" fill-opacity="1"><g transform="translate(166.623418, 236.505186)"><g><path d="M 0.34375 -2.796875 C 0.34375 -3.671875 0.585938 -4.375 1.078125 -4.90625 C 1.578125 -5.445312 2.210938 -5.71875 2.984375 -5.71875 C 3.765625 -5.71875 4.398438 -5.445312 4.890625 -4.90625 C 5.390625 -4.363281 5.640625 -3.660156 5.640625 -2.796875 C 5.640625 -1.910156 5.394531 -1.195312 4.90625 -0.65625 C 4.414062 -0.113281 3.773438 0.15625 2.984375 0.15625 C 2.179688 0.15625 1.539062 -0.113281 1.0625 -0.65625 C 0.582031 -1.195312 0.34375 -1.910156 0.34375 -2.796875 Z M 4.71875 -2.84375 C 4.71875 -3.269531 4.648438 -3.671875 4.515625 -4.046875 C 4.390625 -4.421875 4.1875 -4.734375 3.90625 -4.984375 C 3.632812 -5.234375 3.316406 -5.359375 2.953125 -5.359375 C 2.660156 -5.359375 2.398438 -5.285156 2.171875 -5.140625 C 1.953125 -4.992188 1.773438 -4.796875 1.640625 -4.546875 C 1.515625 -4.296875 1.421875 -4.015625 1.359375 -3.703125 C 1.296875 -3.398438 1.265625 -3.070312 1.265625 -2.71875 C 1.265625 -2 1.425781 -1.398438 1.75 -0.921875 C 2.082031 -0.441406 2.519531 -0.203125 3.0625 -0.203125 C 3.601562 -0.203125 4.015625 -0.453125 4.296875 -0.953125 C 4.578125 -1.453125 4.71875 -2.082031 4.71875 -2.84375 Z M 4.71875 -2.84375 "/></g></g></g><g fill="#0bb6c4" fill-opacity="1"><g transform="translate(178.341507, 236.505186)"><g><path d="M 1.78125 -2.703125 L 1.78125 -0.390625 L 2.53125 -0.234375 C 2.539062 -0.140625 2.523438 -0.046875 2.484375 0.046875 C 2.015625 0.015625 1.632812 0 1.34375 0 C 1.195312 0 0.875 0.015625 0.375 0.046875 C 0.363281 -0.0546875 0.367188 -0.148438 0.390625 -0.234375 C 0.660156 -0.285156 0.84375 -0.335938 0.9375 -0.390625 L 0.9375 -5.171875 L 0.328125 -5.328125 C 0.304688 -5.429688 0.316406 -5.523438 0.359375 -5.609375 C 0.835938 -5.578125 1.164062 -5.5625 1.34375 -5.5625 L 4.3125 -5.5625 C 4.320312 -5.5 4.320312 -5.351562 4.3125 -5.125 C 4.3125 -4.894531 4.285156 -4.578125 4.234375 -4.171875 C 4.148438 -4.140625 4.050781 -4.132812 3.9375 -4.15625 L 3.75 -5.203125 L 1.78125 -5.203125 L 1.78125 -3.140625 L 3.015625 -3.140625 L 3.171875 -3.84375 C 3.296875 -3.875 3.398438 -3.859375 3.484375 -3.796875 C 3.460938 -3.585938 3.453125 -3.304688 3.453125 -2.953125 C 3.453125 -2.554688 3.460938 -2.242188 3.484375 -2.015625 C 3.390625 -1.972656 3.285156 -1.96875 3.171875 -2 L 3.015625 -2.703125 Z M 1.78125 -2.703125 "/></g></g></g><g fill="#0bb6c4" fill-opacity="1"><g transform="translate(188.533217, 236.505186)"><g><path d="M 2.046875 -0.390625 L 2.046875 -5.203125 L 0.796875 -5.203125 L 0.578125 -4.078125 C 0.441406 -4.054688 0.332031 -4.0625 0.25 -4.09375 C 0.1875 -4.707031 0.160156 -5.195312 0.171875 -5.5625 L 4.828125 -5.5625 C 4.835938 -5.144531 4.804688 -4.65625 4.734375 -4.09375 C 4.648438 -4.0625 4.546875 -4.054688 4.421875 -4.078125 L 4.1875 -5.203125 L 2.875 -5.203125 L 2.875 -0.390625 L 3.546875 -0.234375 C 3.554688 -0.140625 3.539062 -0.046875 3.5 0.046875 C 3.019531 0.015625 2.679688 0 2.484375 0 C 2.242188 0 1.878906 0.015625 1.390625 0.046875 C 1.378906 -0.0664062 1.382812 -0.160156 1.40625 -0.234375 C 1.613281 -0.265625 1.828125 -0.316406 2.046875 -0.390625 Z M 2.046875 -0.390625 "/></g></g></g><g fill="#0bb6c4" fill-opacity="1"><g transform="translate(199.217829, 236.505186)"><g><path d="M 2.890625 -2.015625 L 3.671875 -4.484375 L 3.421875 -5.171875 L 2.8125 -5.328125 C 2.789062 -5.429688 2.800781 -5.523438 2.84375 -5.609375 C 3.320312 -5.578125 3.6875 -5.5625 3.9375 -5.5625 C 4.164062 -5.5625 4.53125 -5.578125 5.03125 -5.609375 C 5.039062 -5.503906 5.035156 -5.410156 5.015625 -5.328125 C 4.984375 -5.328125 4.929688 -5.316406 4.859375 -5.296875 C 4.785156 -5.285156 4.726562 -5.273438 4.6875 -5.265625 C 4.644531 -5.265625 4.59375 -5.253906 4.53125 -5.234375 C 4.46875 -5.210938 4.410156 -5.191406 4.359375 -5.171875 L 5.359375 -2.078125 C 5.535156 -1.503906 5.644531 -1.09375 5.6875 -0.84375 L 5.703125 -0.84375 C 5.765625 -1.175781 5.863281 -1.585938 6 -2.078125 L 6.8125 -5.171875 L 6.125 -5.328125 C 6.101562 -5.429688 6.113281 -5.523438 6.15625 -5.609375 C 6.582031 -5.578125 6.882812 -5.5625 7.0625 -5.5625 C 7.25 -5.5625 7.53125 -5.578125 7.90625 -5.609375 C 7.925781 -5.503906 7.921875 -5.410156 7.890625 -5.328125 C 7.597656 -5.273438 7.382812 -5.222656 7.25 -5.171875 L 5.78125 0.15625 C 5.6875 0.195312 5.550781 0.222656 5.375 0.234375 L 3.890625 -3.875 L 2.59375 0.15625 C 2.507812 0.195312 2.382812 0.222656 2.21875 0.234375 L 0.46875 -5.171875 L -0.15625 -5.328125 C -0.164062 -5.429688 -0.148438 -5.523438 -0.109375 -5.609375 C 0.367188 -5.578125 0.734375 -5.5625 0.984375 -5.5625 C 1.210938 -5.5625 1.570312 -5.578125 2.0625 -5.609375 C 2.082031 -5.503906 2.078125 -5.410156 2.046875 -5.328125 C 1.796875 -5.296875 1.578125 -5.242188 1.390625 -5.171875 L 2.21875 -2.046875 C 2.394531 -1.390625 2.5 -0.957031 2.53125 -0.75 L 2.546875 -0.75 C 2.597656 -1.09375 2.710938 -1.515625 2.890625 -2.015625 Z M 2.890625 -2.015625 "/></g></g></g><g fill="#0bb6c4" fill-opacity="1"><g transform="translate(212.835944, 236.505186)"><g><path d="M 3.46875 -1.90625 L 1.625 -1.90625 L 1.109375 -0.390625 L 1.71875 -0.234375 C 1.726562 -0.140625 1.710938 -0.046875 1.671875 0.046875 C 1.203125 0.015625 0.878906 0 0.703125 0 C 0.617188 0 0.53125 0 0.4375 0 C 0.351562 0.0078125 0.269531 0.015625 0.1875 0.015625 C 0.113281 0.0234375 0.0390625 0.0351562 -0.03125 0.046875 C -0.0390625 -0.0546875 -0.0351562 -0.148438 -0.015625 -0.234375 C 0.222656 -0.265625 0.429688 -0.316406 0.609375 -0.390625 L 2.484375 -5.71875 C 2.566406 -5.757812 2.671875 -5.78125 2.796875 -5.78125 L 4.953125 -0.390625 L 5.5625 -0.234375 C 5.582031 -0.140625 5.570312 -0.046875 5.53125 0.046875 C 5.050781 0.015625 4.726562 0 4.5625 0 C 4.28125 0 3.894531 0.015625 3.40625 0.046875 C 3.382812 -0.0546875 3.390625 -0.148438 3.421875 -0.234375 C 3.671875 -0.265625 3.882812 -0.316406 4.0625 -0.390625 Z M 2.5 -4.609375 L 2.484375 -4.609375 C 2.328125 -4.023438 2.210938 -3.632812 2.140625 -3.4375 L 1.765625 -2.34375 L 3.296875 -2.34375 L 2.859375 -3.46875 C 2.679688 -3.863281 2.5625 -4.242188 2.5 -4.609375 Z M 2.5 -4.609375 "/></g></g></g><g fill="#0bb6c4" fill-opacity="1"><g transform="translate(224.005493, 236.505186)"><g><path d="M 1.78125 -2.5 L 1.78125 -0.390625 L 2.390625 -0.234375 C 2.398438 -0.140625 2.382812 -0.046875 2.34375 0.046875 C 1.863281 0.015625 1.539062 0 1.375 0 C 1.144531 0 0.78125 0.015625 0.28125 0.046875 C 0.269531 -0.0546875 0.273438 -0.148438 0.296875 -0.234375 C 0.535156 -0.265625 0.75 -0.316406 0.9375 -0.390625 L 0.9375 -5.171875 L 0.328125 -5.328125 C 0.304688 -5.429688 0.316406 -5.523438 0.359375 -5.609375 C 0.804688 -5.578125 1.1875 -5.5625 1.5 -5.5625 L 2.25 -5.609375 C 2.914062 -5.648438 3.453125 -5.53125 3.859375 -5.25 C 4.265625 -4.976562 4.46875 -4.585938 4.46875 -4.078125 C 4.46875 -3.378906 4.101562 -2.910156 3.375 -2.671875 L 3.375 -2.640625 C 3.4375 -2.597656 3.5 -2.515625 3.5625 -2.390625 C 4 -1.398438 4.257812 -0.832031 4.34375 -0.6875 C 4.476562 -0.445312 4.625 -0.304688 4.78125 -0.265625 C 4.851562 -0.253906 4.929688 -0.25 5.015625 -0.25 L 5.109375 -0.25 C 5.148438 -0.1875 5.164062 -0.101562 5.15625 0 C 5.09375 0.0703125 4.914062 0.113281 4.625 0.125 C 4.28125 0.125 3.992188 -0.015625 3.765625 -0.296875 C 3.671875 -0.398438 3.582031 -0.539062 3.5 -0.71875 C 3.414062 -0.90625 3.300781 -1.164062 3.15625 -1.5 C 3.019531 -1.84375 2.867188 -2.179688 2.703125 -2.515625 C 2.523438 -2.492188 2.347656 -2.484375 2.171875 -2.484375 C 2.078125 -2.484375 1.945312 -2.488281 1.78125 -2.5 Z M 3.6875 -4.03125 C 3.6875 -4.414062 3.5625 -4.710938 3.3125 -4.921875 C 3.0625 -5.140625 2.742188 -5.25 2.359375 -5.25 C 2.179688 -5.25 1.988281 -5.21875 1.78125 -5.15625 L 1.78125 -2.875 C 1.925781 -2.832031 2.082031 -2.8125 2.25 -2.8125 C 2.707031 -2.8125 3.0625 -2.914062 3.3125 -3.125 C 3.5625 -3.34375 3.6875 -3.644531 3.6875 -4.03125 Z M 3.6875 -4.03125 "/></g></g></g><g fill="#0bb6c4" fill-opacity="1"><g transform="translate(234.920644, 236.505186)"><g><path d="M 3.25 -2.625 L 1.78125 -2.625 L 1.78125 -0.359375 L 4.078125 -0.359375 L 4.25 -1.421875 C 4.351562 -1.441406 4.445312 -1.429688 4.53125 -1.390625 C 4.601562 -1.078125 4.632812 -0.613281 4.625 0 L 1.375 0 C 1.164062 0 0.8125 0.015625 0.3125 0.046875 C 0.300781 -0.0546875 0.304688 -0.148438 0.328125 -0.234375 C 0.609375 -0.285156 0.8125 -0.335938 0.9375 -0.390625 L 0.9375 -5.171875 L 0.328125 -5.328125 C 0.304688 -5.429688 0.316406 -5.523438 0.359375 -5.609375 C 0.835938 -5.578125 1.164062 -5.5625 1.34375 -5.5625 L 4.390625 -5.5625 C 4.398438 -5.019531 4.375 -4.554688 4.3125 -4.171875 C 4.226562 -4.140625 4.132812 -4.132812 4.03125 -4.15625 L 3.8125 -5.203125 L 1.78125 -5.203125 L 1.78125 -3.0625 L 3.25 -3.0625 L 3.40625 -3.765625 C 3.53125 -3.796875 3.632812 -3.78125 3.71875 -3.71875 C 3.695312 -3.507812 3.6875 -3.226562 3.6875 -2.875 C 3.6875 -2.476562 3.695312 -2.164062 3.71875 -1.9375 C 3.625 -1.894531 3.519531 -1.890625 3.40625 -1.921875 Z M 3.25 -2.625 "/></g></g></g><g fill="#0bb6c4" fill-opacity="1"><g transform="translate(245.621147, 236.505186)"><g/></g></g><g fill="#0bb6c4" fill-opacity="1"><g transform="translate(253.237107, 236.505186)"><g><path d="M 3.25 -2.625 L 1.78125 -2.625 L 1.78125 -0.359375 L 4.078125 -0.359375 L 4.25 -1.421875 C 4.351562 -1.441406 4.445312 -1.429688 4.53125 -1.390625 C 4.601562 -1.078125 4.632812 -0.613281 4.625 0 L 1.375 0 C 1.164062 0 0.8125 0.015625 0.3125 0.046875 C 0.300781 -0.0546875 0.304688 -0.148438 0.328125 -0.234375 C 0.609375 -0.285156 0.8125 -0.335938 0.9375 -0.390625 L 0.9375 -5.171875 L 0.328125 -5.328125 C 0.304688 -5.429688 0.316406 -5.523438 0.359375 -5.609375 C 0.835938 -5.578125 1.164062 -5.5625 1.34375 -5.5625 L 4.390625 -5.5625 C 4.398438 -5.019531 4.375 -4.554688 4.3125 -4.171875 C 4.226562 -4.140625 4.132812 -4.132812 4.03125 -4.15625 L 3.8125 -5.203125 L 1.78125 -5.203125 L 1.78125 -3.0625 L 3.25 -3.0625 L 3.40625 -3.765625 C 3.53125 -3.796875 3.632812 -3.78125 3.71875 -3.71875 C 3.695312 -3.507812 3.6875 -3.226562 3.6875 -2.875 C 3.6875 -2.476562 3.695312 -2.164062 3.71875 -1.9375 C 3.625 -1.894531 3.519531 -1.890625 3.40625 -1.921875 Z M 3.25 -2.625 "/></g></g></g><g fill="#0bb6c4" fill-opacity="1"><g transform="translate(263.937604, 236.505186)"><g><path d="M 4.703125 -5.171875 L 4.09375 -5.328125 C 4.070312 -5.429688 4.082031 -5.523438 4.125 -5.609375 C 4.46875 -5.578125 4.734375 -5.5625 4.921875 -5.5625 C 5.117188 -5.5625 5.410156 -5.578125 5.796875 -5.609375 C 5.816406 -5.503906 5.8125 -5.410156 5.78125 -5.328125 C 5.507812 -5.273438 5.296875 -5.222656 5.140625 -5.171875 L 5.140625 0.15625 C 5.085938 0.195312 5.035156 0.222656 4.984375 0.234375 L 1.828125 -3.78125 C 1.710938 -3.90625 1.554688 -4.15625 1.359375 -4.53125 L 1.328125 -4.53125 C 1.359375 -4.363281 1.375 -4.101562 1.375 -3.75 L 1.375 -0.390625 L 1.984375 -0.234375 C 1.992188 -0.128906 1.976562 -0.0351562 1.9375 0.046875 C 1.875 0.046875 1.785156 0.0390625 1.671875 0.03125 C 1.566406 0.0195312 1.46875 0.0078125 1.375 0 C 1.28125 0 1.191406 0 1.109375 0 C 1.054688 0 0.785156 0.015625 0.296875 0.046875 C 0.273438 -0.0546875 0.28125 -0.148438 0.3125 -0.234375 C 0.507812 -0.265625 0.71875 -0.316406 0.9375 -0.390625 L 0.9375 -5.171875 L 0.3125 -5.328125 C 0.300781 -5.429688 0.316406 -5.523438 0.359375 -5.609375 C 0.835938 -5.578125 1.160156 -5.5625 1.328125 -5.5625 L 1.640625 -5.5625 L 1.84375 -5.15625 L 4.296875 -2 C 4.429688 -1.832031 4.578125 -1.570312 4.734375 -1.21875 L 4.75 -1.21875 C 4.738281 -1.34375 4.726562 -1.4375 4.71875 -1.5 C 4.71875 -1.5625 4.710938 -1.632812 4.703125 -1.71875 C 4.703125 -1.800781 4.703125 -1.890625 4.703125 -1.984375 Z M 4.703125 -5.171875 "/></g></g></g><g fill="#0bb6c4" fill-opacity="1"><g transform="translate(275.68749, 236.505186)"><g><path d="M 4.9375 -1.984375 L 4.9375 -0.390625 C 4.300781 -0.0234375 3.65625 0.15625 3 0.15625 C 2.238281 0.15625 1.601562 -0.101562 1.09375 -0.625 C 0.59375 -1.144531 0.34375 -1.863281 0.34375 -2.78125 C 0.34375 -3.6875 0.625 -4.398438 1.1875 -4.921875 C 1.75 -5.453125 2.476562 -5.71875 3.375 -5.71875 C 3.988281 -5.71875 4.535156 -5.609375 5.015625 -5.390625 C 5.015625 -4.984375 4.929688 -4.519531 4.765625 -4 C 4.742188 -3.988281 4.707031 -3.984375 4.65625 -3.984375 C 4.5625 -3.984375 4.476562 -4 4.40625 -4.03125 L 4.328125 -5.109375 C 3.972656 -5.242188 3.632812 -5.3125 3.3125 -5.3125 C 2.71875 -5.3125 2.226562 -5.078125 1.84375 -4.609375 C 1.46875 -4.140625 1.273438 -3.53125 1.265625 -2.78125 C 1.265625 -2.007812 1.429688 -1.394531 1.765625 -0.9375 C 2.097656 -0.488281 2.5625 -0.265625 3.15625 -0.265625 C 3.46875 -0.253906 3.78125 -0.320312 4.09375 -0.46875 L 4.09375 -1.984375 L 3.484375 -2.140625 C 3.472656 -2.160156 3.46875 -2.191406 3.46875 -2.234375 C 3.46875 -2.296875 3.484375 -2.359375 3.515625 -2.421875 C 3.992188 -2.398438 4.332031 -2.390625 4.53125 -2.390625 C 4.695312 -2.390625 5.019531 -2.398438 5.5 -2.421875 C 5.53125 -2.359375 5.546875 -2.296875 5.546875 -2.234375 C 5.546875 -2.222656 5.546875 -2.207031 5.546875 -2.1875 C 5.546875 -2.175781 5.546875 -2.160156 5.546875 -2.140625 C 5.285156 -2.117188 5.082031 -2.066406 4.9375 -1.984375 Z M 4.9375 -1.984375 "/></g></g></g><g fill="#0bb6c4" fill-opacity="1"><g transform="translate(287.111429, 236.505186)"><g><path d="M 1.78125 -5.171875 L 1.78125 -0.390625 L 2.390625 -0.234375 C 2.398438 -0.140625 2.382812 -0.046875 2.34375 0.046875 C 1.863281 0.015625 1.539062 0 1.375 0 C 1.144531 0 0.78125 0.015625 0.28125 0.046875 C 0.269531 -0.0664062 0.273438 -0.160156 0.296875 -0.234375 C 0.585938 -0.273438 0.800781 -0.328125 0.9375 -0.390625 L 0.9375 -5.171875 L 0.328125 -5.328125 C 0.304688 -5.429688 0.316406 -5.523438 0.359375 -5.609375 C 0.835938 -5.578125 1.164062 -5.5625 1.34375 -5.5625 C 1.570312 -5.5625 1.929688 -5.578125 2.421875 -5.609375 C 2.441406 -5.503906 2.4375 -5.410156 2.40625 -5.328125 C 2.132812 -5.273438 1.925781 -5.222656 1.78125 -5.171875 Z M 1.78125 -5.171875 "/></g></g></g><g fill="#0bb6c4" fill-opacity="1"><g transform="translate(295.538271, 236.505186)"><g><path d="M 4.703125 -5.171875 L 4.09375 -5.328125 C 4.070312 -5.429688 4.082031 -5.523438 4.125 -5.609375 C 4.46875 -5.578125 4.734375 -5.5625 4.921875 -5.5625 C 5.117188 -5.5625 5.410156 -5.578125 5.796875 -5.609375 C 5.816406 -5.503906 5.8125 -5.410156 5.78125 -5.328125 C 5.507812 -5.273438 5.296875 -5.222656 5.140625 -5.171875 L 5.140625 0.15625 C 5.085938 0.195312 5.035156 0.222656 4.984375 0.234375 L 1.828125 -3.78125 C 1.710938 -3.90625 1.554688 -4.15625 1.359375 -4.53125 L 1.328125 -4.53125 C 1.359375 -4.363281 1.375 -4.101562 1.375 -3.75 L 1.375 -0.390625 L 1.984375 -0.234375 C 1.992188 -0.128906 1.976562 -0.0351562 1.9375 0.046875 C 1.875 0.046875 1.785156 0.0390625 1.671875 0.03125 C 1.566406 0.0195312 1.46875 0.0078125 1.375 0 C 1.28125 0 1.191406 0 1.109375 0 C 1.054688 0 0.785156 0.015625 0.296875 0.046875 C 0.273438 -0.0546875 0.28125 -0.148438 0.3125 -0.234375 C 0.507812 -0.265625 0.71875 -0.316406 0.9375 -0.390625 L 0.9375 -5.171875 L 0.3125 -5.328125 C 0.300781 -5.429688 0.316406 -5.523438 0.359375 -5.609375 C 0.835938 -5.578125 1.160156 -5.5625 1.328125 -5.5625 L 1.640625 -5.5625 L 1.84375 -5.15625 L 4.296875 -2 C 4.429688 -1.832031 4.578125 -1.570312 4.734375 -1.21875 L 4.75 -1.21875 C 4.738281 -1.34375 4.726562 -1.4375 4.71875 -1.5 C 4.71875 -1.5625 4.710938 -1.632812 4.703125 -1.71875 C 4.703125 -1.800781 4.703125 -1.890625 4.703125 -1.984375 Z M 4.703125 -5.171875 "/></g></g></g><g fill="#0bb6c4" fill-opacity="1"><g transform="translate(307.288156, 236.505186)"><g><path d="M 3.25 -2.625 L 1.78125 -2.625 L 1.78125 -0.359375 L 4.078125 -0.359375 L 4.25 -1.421875 C 4.351562 -1.441406 4.445312 -1.429688 4.53125 -1.390625 C 4.601562 -1.078125 4.632812 -0.613281 4.625 0 L 1.375 0 C 1.164062 0 0.8125 0.015625 0.3125 0.046875 C 0.300781 -0.0546875 0.304688 -0.148438 0.328125 -0.234375 C 0.609375 -0.285156 0.8125 -0.335938 0.9375 -0.390625 L 0.9375 -5.171875 L 0.328125 -5.328125 C 0.304688 -5.429688 0.316406 -5.523438 0.359375 -5.609375 C 0.835938 -5.578125 1.164062 -5.5625 1.34375 -5.5625 L 4.390625 -5.5625 C 4.398438 -5.019531 4.375 -4.554688 4.3125 -4.171875 C 4.226562 -4.140625 4.132812 -4.132812 4.03125 -4.15625 L 3.8125 -5.203125 L 1.78125 -5.203125 L 1.78125 -3.0625 L 3.25 -3.0625 L 3.40625 -3.765625 C 3.53125 -3.796875 3.632812 -3.78125 3.71875 -3.71875 C 3.695312 -3.507812 3.6875 -3.226562 3.6875 -2.875 C 3.6875 -2.476562 3.695312 -2.164062 3.71875 -1.9375 C 3.625 -1.894531 3.519531 -1.890625 3.40625 -1.921875 Z M 3.25 -2.625 "/></g></g></g><g fill="#0bb6c4" fill-opacity="1"><g transform="translate(317.988653, 236.505186)"><g><path d="M 3.25 -2.625 L 1.78125 -2.625 L 1.78125 -0.359375 L 4.078125 -0.359375 L 4.25 -1.421875 C 4.351562 -1.441406 4.445312 -1.429688 4.53125 -1.390625 C 4.601562 -1.078125 4.632812 -0.613281 4.625 0 L 1.375 0 C 1.164062 0 0.8125 0.015625 0.3125 0.046875 C 0.300781 -0.0546875 0.304688 -0.148438 0.328125 -0.234375 C 0.609375 -0.285156 0.8125 -0.335938 0.9375 -0.390625 L 0.9375 -5.171875 L 0.328125 -5.328125 C 0.304688 -5.429688 0.316406 -5.523438 0.359375 -5.609375 C 0.835938 -5.578125 1.164062 -5.5625 1.34375 -5.5625 L 4.390625 -5.5625 C 4.398438 -5.019531 4.375 -4.554688 4.3125 -4.171875 C 4.226562 -4.140625 4.132812 -4.132812 4.03125 -4.15625 L 3.8125 -5.203125 L 1.78125 -5.203125 L 1.78125 -3.0625 L 3.25 -3.0625 L 3.40625 -3.765625 C 3.53125 -3.796875 3.632812 -3.78125 3.71875 -3.71875 C 3.695312 -3.507812 3.6875 -3.226562 3.6875 -2.875 C 3.6875 -2.476562 3.695312 -2.164062 3.71875 -1.9375 C 3.625 -1.894531 3.519531 -1.890625 3.40625 -1.921875 Z M 3.25 -2.625 "/></g></g></g><g fill="#0bb6c4" fill-opacity="1"><g transform="translate(328.689151, 236.505186)"><g><path d="M 1.78125 -2.5 L 1.78125 -0.390625 L 2.390625 -0.234375 C 2.398438 -0.140625 2.382812 -0.046875 2.34375 0.046875 C 1.863281 0.015625 1.539062 0 1.375 0 C 1.144531 0 0.78125 0.015625 0.28125 0.046875 C 0.269531 -0.0546875 0.273438 -0.148438 0.296875 -0.234375 C 0.535156 -0.265625 0.75 -0.316406 0.9375 -0.390625 L 0.9375 -5.171875 L 0.328125 -5.328125 C 0.304688 -5.429688 0.316406 -5.523438 0.359375 -5.609375 C 0.804688 -5.578125 1.1875 -5.5625 1.5 -5.5625 L 2.25 -5.609375 C 2.914062 -5.648438 3.453125 -5.53125 3.859375 -5.25 C 4.265625 -4.976562 4.46875 -4.585938 4.46875 -4.078125 C 4.46875 -3.378906 4.101562 -2.910156 3.375 -2.671875 L 3.375 -2.640625 C 3.4375 -2.597656 3.5 -2.515625 3.5625 -2.390625 C 4 -1.398438 4.257812 -0.832031 4.34375 -0.6875 C 4.476562 -0.445312 4.625 -0.304688 4.78125 -0.265625 C 4.851562 -0.253906 4.929688 -0.25 5.015625 -0.25 L 5.109375 -0.25 C 5.148438 -0.1875 5.164062 -0.101562 5.15625 0 C 5.09375 0.0703125 4.914062 0.113281 4.625 0.125 C 4.28125 0.125 3.992188 -0.015625 3.765625 -0.296875 C 3.671875 -0.398438 3.582031 -0.539062 3.5 -0.71875 C 3.414062 -0.90625 3.300781 -1.164062 3.15625 -1.5 C 3.019531 -1.84375 2.867188 -2.179688 2.703125 -2.515625 C 2.523438 -2.492188 2.347656 -2.484375 2.171875 -2.484375 C 2.078125 -2.484375 1.945312 -2.488281 1.78125 -2.5 Z M 3.6875 -4.03125 C 3.6875 -4.414062 3.5625 -4.710938 3.3125 -4.921875 C 3.0625 -5.140625 2.742188 -5.25 2.359375 -5.25 C 2.179688 -5.25 1.988281 -5.21875 1.78125 -5.15625 L 1.78125 -2.875 C 1.925781 -2.832031 2.082031 -2.8125 2.25 -2.8125 C 2.707031 -2.8125 3.0625 -2.914062 3.3125 -3.125 C 3.5625 -3.34375 3.6875 -3.644531 3.6875 -4.03125 Z M 3.6875 -4.03125 "/></g></g></g></svg>